0
SECTION
2
HEADER
9
$INSUNITS
70
4
9
$ACADVER
1
AC1014
9
$HANDSEED
5
FFFF
0
ENDSEC
0
SECTION
2
TABLES
0
TABLE
2
VPORT
5
8
100
AcDbSymbolTable
0
ENDTAB
0
TABLE
2
LTYPE
5
5
100
AcDbSymbolTable
0
LTYPE
5
14
100
AcDbSymbolTableRecord
100
AcDbLinetypeTableRecord
2
BYBLOCK
70
0
0
LTYPE
5
15
100
AcDbSymbolTableRecord
100
AcDbLinetypeTableRecord
2
BYLAYER
70
0
0
ENDTAB
0
TABLE
2
LAYER
5
2
100
AcDbSymbolTable
70
2
0
LAYER
5
50
100
AcDbSymbolTableRecord
100
AcDbLayerTableRecord
2
0
70
0
6
CONTINUOUS
0
ENDTAB
0
TABLE
2
STYLE
5
3
100
AcDbSymbolTable
70
1
0
STYLE
5
11
100
AcDbSymbolTableRecord
100
AcDbTextStyleTableRecord
2
STANDARD
70
0
0
ENDTAB
0
TABLE
2
VIEW
5
6
100
AcDbSymbolTable
70
0
0
ENDTAB
0
TABLE
2
UCS
5
7
100
AcDbSymbolTable
70
0
0
ENDTAB
0
TABLE
2
APPID
5
9
100
AcDbSymbolTable
70
2
0
APPID
5
12
100
AcDbSymbolTableRecord
100
AcDbRegAppTableRecord
2
ACAD
70
0
0
ENDTAB
0
TABLE
2
DIMSTYLE
5
A
100
AcDbSymbolTable
70
1
0
ENDTAB
0
TABLE
2
BLOCK_RECORD
5
1
100
AcDbSymbolTable
70
1
0
BLOCK_RECORD
5
1F
100
AcDbSymbolTableRecord
100
AcDbBlockTableRecord
2
*MODEL_SPACE
0
BLOCK_RECORD
5
1B
100
AcDbSymbolTableRecord
100
AcDbBlockTableRecord
2
*PAPER_SPACE
0
ENDTAB
0
ENDSEC
0
SECTION
2
BLOCKS
0
BLOCK
5
20
100
AcDbEntity
100
AcDbBlockBegin
2
*MODEL_SPACE
0
ENDBLK
5
21
100
AcDbEntity
100
AcDbBlockEnd
0
BLOCK
5
1C
100
AcDbEntity
100
AcDbBlockBegin
2
*PAPER_SPACE
0
ENDBLK
5
1D
100
AcDbEntity
100
AcDbBlockEnd
0
ENDSEC
0
SECTION
2
ENTITIES
0
LWPOLYLINE
5
100
100
AcDbEntity
8
0
100
AcDbPolyline
90
8
70
1
43
0.0
10
-322.61370400000004
20
120.10966000000002
10
-321.31270400000005
20
118.80866
10
-321.31270400000005
20
107.41066000000001
10
-322.61370400000004
20
106.10966000000002
10
-334.61170400000003
20
106.10966000000002
10
-335.91270399999996
20
107.41066000000001
10
-335.91270399999996
20
118.80866
10
-334.61170400000003
20
120.10966000000002
0
LWPOLYLINE
5
101
100
AcDbEntity
8
0
100
AcDbPolyline
90
8
70
1
43
0.0
10
-341.66370400000005
20
120.10966000000002
10
-340.36270400000006
20
118.80866
10
-340.36270400000006
20
107.41066000000001
10
-341.66370400000005
20
106.10966000000002
10
-353.66170399999999
20
106.10966000000002
10
-354.96270400000003
20
107.41066000000001
10
-354.96270400000003
20
118.80866
10
-353.66170399999999
20
120.10966000000002
0
LWPOLYLINE
5
102
100
AcDbEntity
8
0
100
AcDbPolyline
90
8
70
1
43
0.0
10
-341.663704
20
177.25966
10
-340.36270400000001
20
175.95866000000001
10
-340.36270400000001
20
164.56066000000004
10
-341.663704
20
163.25966
10
-353.66170399999999
20
163.25966
10
-354.96270400000003
20
164.56066000000004
10
-354.96270400000003
20
175.95866000000001
10
-353.66170399999999
20
177.25966
0
LWPOLYLINE
5
103
100
AcDbEntity
8
0
100
AcDbPolyline
90
8
70
1
43
0.0
10
-314.16895399999999
20
175.95866000000001
10
-314.16895399999999
20
164.56066000000004
10
-315.46995400000003
20
163.25966
10
-327.46795400000002
20
163.25966
10
-328.76895400000001
20
164.56066000000004
10
-328.76895400000001
20
175.95866000000001
10
-327.46795400000002
20
177.25966
10
-315.46995400000003
20
177.25966
0
CIRCLE
5
104
100
AcDbEntity
8
0
100
AcDbCircle
10
-304.80020400000001
20
170.25966
30
0
40
0.8115
210
0
220
0
230
1
0
LWPOLYLINE
5
105
100
AcDbEntity
8
0
100
AcDbPolyline
90
8
70
1
43
0.0
10
-302.57520399999999
20
175.95866000000001
10
-301.274204
20
177.25966
10
-289.27620400000001
20
177.25966
10
-287.97520400000002
20
175.95866000000001
10
-287.97520400000002
20
164.56066000000004
10
-289.27620400000001
20
163.25966
10
-301.274204
20
163.25966
10
-302.57520399999999
20
164.56066000000004
0
LWPOLYLINE
5
106
100
AcDbEntity
8
0
100
AcDbPolyline
90
6
70
1
43
0.0
10
-351.75645400000002
20
144.20966000000001
10
-351.75645400000002
20
156.47765999999999
10
-348.75645400000002
20
158.20966000000001
10
-322.75645400000002
20
158.20966000000001
10
-319.75645400000008
20
156.47765999999999
10
-319.75645400000008
20
144.20966000000001
0
CIRCLE
5
107
100
AcDbEntity
8
0
100
AcDbCircle
10
-314.32520399999999
20
151.20966000000004
30
0
40
0.8115
210
0
220
0
230
1
0
LWPOLYLINE
5
108
100
AcDbEntity
8
0
100
AcDbPolyline
90
8
70
1
43
0.0
10
-310.79920399999997
20
144.20966000000001
10
-312.10020400000008
20
145.51066
10
-312.10020400000008
20
156.90866
10
-310.79920399999997
20
158.20966000000001
10
-298.80120399999998
20
158.20966000000001
10
-297.500204
20
156.90866
10
-297.500204
20
145.51066
10
-298.80120399999998
20
144.20966000000001
0
LWPOLYLINE
5
109
100
AcDbEntity
8
0
100
AcDbPolyline
90
8
70
1
43
0.0
10
-291.74920400000008
20
158.20966000000001
10
-279.75120399999997
20
158.20966000000001
10
-278.45020399999999
20
156.90866
10
-278.45020399999999
20
145.51066
10
-279.75120399999997
20
144.20966000000001
10
-291.74920400000008
20
144.20966000000001
10
-293.05020400000001
20
145.51066
10
-293.05020400000001
20
156.90866
0
LWPOLYLINE
5
110
100
AcDbEntity
8
0
100
AcDbPolyline
90
8
70
1
43
0.0
10
-283.52520399999997
20
164.56066000000004
10
-283.52520399999997
20
175.95866000000001
10
-282.22420399999999
20
177.25966
10
-270.226204
20
177.25966
10
-268.92520400000001
20
175.95866000000001
10
-268.92520400000001
20
164.56066000000004
10
-270.226204
20
163.25966
10
-282.22420399999999
20
163.25966
0
CIRCLE
5
111
100
AcDbEntity
8
0
100
AcDbCircle
10
-266.70020399999999
20
170.25966
30
0
40
0.8115
210
0
220
0
230
1
0
LWPOLYLINE
5
112
100
AcDbEntity
8
0
100
AcDbPolyline
90
8
70
1
43
0.0
10
-264.47520400000002
20
164.56066000000004
10
-264.47520400000002
20
175.95866000000001
10
-263.17420399999997
20
177.25966
10
-251.17620400000004
20
177.25966
10
-249.875204
20
175.95866000000001
10
-249.875204
20
164.56066000000004
10
-251.17620400000004
20
163.25966
10
-263.17420399999997
20
163.25966
0
LWPOLYLINE
5
113
100
AcDbEntity
8
0
100
AcDbPolyline
90
8
70
1
43
0.0
10
-230.82520400000004
20
164.56066000000004
10
-232.12620400000003
20
163.25966
10
-244.12420400000002
20
163.25966
10
-245.42520400000001
20
164.56066000000004
10
-245.42520400000001
20
175.95866000000001
10
-244.12420400000002
20
177.25966
10
-232.12620400000003
20
177.25966
10
-230.82520400000004
20
175.95866000000001
0
CIRCLE
5
114
100
AcDbEntity
8
0
100
AcDbCircle
10
-228.60020399999999
20
170.25966
30
0
40
0.8115
210
0
220
0
230
1
0
LWPOLYLINE
5
115
100
AcDbEntity
8
0
100
AcDbPolyline
90
8
70
1
43
0.0
10
-213.07620400000002
20
163.25966
10
-225.07420400000001
20
163.25966
10
-226.375204
20
164.56066000000004
10
-226.375204
20
175.95866000000001
10
-225.07420400000001
20
177.25966
10
-213.07620400000002
20
177.25966
10
-211.77520400000003
20
175.95866000000001
10
-211.77520400000003
20
164.56066000000004
0
CIRCLE
5
116
100
AcDbEntity
8
0
100
AcDbCircle
10
-276.22520400000002
20
151.20966000000004
30
0
40
0.8115
210
0
220
0
230
1
0
LWPOLYLINE
5
117
100
AcDbEntity
8
0
100
AcDbPolyline
90
8
70
1
43
0.0
10
-274.00020400000005
20
156.90866
10
-272.69920400000001
20
158.20966000000001
10
-260.70120400000002
20
158.20966000000001
10
-259.40020399999997
20
156.90866
10
-259.40020399999997
20
145.51066
10
-260.70120400000002
20
144.20966000000001
10
-272.69920400000001
20
144.20966000000001
10
-274.00020400000005
20
145.51066
0
LWPOLYLINE
5
118
100
AcDbEntity
8
0
100
AcDbPolyline
90
8
70
1
43
0.0
10
-241.65120400000004
20
144.20966000000001
10
-253.64920400000003
20
144.20966000000001
10
-254.95020400000001
20
145.51066
10
-254.95020400000001
20
156.90866
10
-253.64920400000003
20
158.20966000000001
10
-241.65120400000004
20
158.20966000000001
10
-240.35020400000002
20
156.90866
10
-240.35020400000002
20
145.51066
0
CIRCLE
5
119
100
AcDbEntity
8
0
100
AcDbCircle
10
-238.125204
20
151.20966000000004
30
0
40
0.8115
210
0
220
0
230
1
0
LWPOLYLINE
5
120
100
AcDbEntity
8
0
100
AcDbPolyline
90
8
70
1
43
0.0
10
-234.59920400000001
20
144.20966000000001
10
-235.900204
20
145.51066
10
-235.900204
20
156.90866
10
-234.59920400000001
20
158.20966000000001
10
-222.60120400000002
20
158.20966000000001
10
-221.30020400000004
20
156.90866
10
-221.30020400000004
20
145.51066
10
-222.60120400000002
20
144.20966000000001
0
LWPOLYLINE
5
121
100
AcDbEntity
8
0
100
AcDbPolyline
90
8
70
1
43
0.0
10
-207.32520400000001
20
175.95866000000001
10
-206.024204
20
177.25966
10
-194.02620400000004
20
177.25966
10
-192.72520400000002
20
175.95866000000001
10
-192.72520400000002
20
164.56066000000004
10
-194.02620400000004
20
163.25966
10
-206.024204
20
163.25966
10
-207.32520400000001
20
164.56066000000004
0
LWPOLYLINE
5
122
100
AcDbEntity
8
0
100
AcDbPolyline
90
8
70
1
43
0.0
10
-173.67520400000001
20
164.56066000000004
10
-174.976204
20
163.25966
10
-186.97420399999999
20
163.25966
10
-188.275204
20
164.56066000000004
10
-188.275204
20
175.95866000000001
10
-186.97420399999999
20
177.25966
10
-174.976204
20
177.25966
10
-173.67520400000001
20
175.95866000000001
0
LWPOLYLINE
5
123
100
AcDbEntity
8
0
100
AcDbPolyline
90
8
70
1
43
0.0
10
-169.22520399999999
20
164.56066000000004
10
-169.22520399999999
20
175.95866000000001
10
-167.924204
20
177.25966
10
-155.92620400000001
20
177.25966
10
-154.625204
20
175.95866000000001
10
-154.625204
20
164.56066000000004
10
-155.92620400000001
20
163.25966
10
-167.924204
20
163.25966
0
CIRCLE
5
124
100
AcDbEntity
8
0
100
AcDbCircle
10
-152.400204
20
170.25966
30
0
40
0.8115
210
0
220
0
230
1
0
LWPOLYLINE
5
125
100
AcDbEntity
8
0
100
AcDbPolyline
90
8
70
1
43
0.0
10
-215.549204
20
158.20966000000001
10
-203.55120400000004
20
158.20966000000001
10
-202.25020400000002
20
156.90866
10
-202.25020400000002
20
145.51066
10
-203.55120400000004
20
144.20966000000001
10
-215.549204
20
144.20966000000001
10
-216.85020399999999
20
145.51066
10
-216.85020399999999
20
156.90866
0
LWPOLYLINE
5
126
100
AcDbEntity
8
0
100
AcDbPolyline
90
8
70
1
43
0.0
10
-184.501204
20
158.20966000000001
10
-183.20020400000001
20
156.90866
10
-183.20020400000001
20
145.51066
10
-184.501204
20
144.20966000000001
10
-196.49920399999999
20
144.20966000000001
10
-197.80020400000001
20
145.51066
10
-197.80020400000001
20
156.90866
10
-196.49920399999999
20
158.20966000000001
0
LWPOLYLINE
5
127
100
AcDbEntity
8
0
100
AcDbPolyline
90
8
70
1
43
0.0
10
-165.45120399999999
20
144.20966000000001
10
-177.44920400000001
20
144.20966000000001
10
-178.750204
20
145.51066
10
-178.750204
20
156.90866
10
-177.44920400000001
20
158.20966000000001
10
-165.45120399999999
20
158.20966000000001
10
-164.150204
20
156.90866
10
-164.150204
20
145.51066
0
CIRCLE
5
128
100
AcDbEntity
8
0
100
AcDbCircle
10
-161.92520400000004
20
151.20966000000004
30
0
40
0.8115
210
0
220
0
230
1
0
LWPOLYLINE
5
129
100
AcDbEntity
8
0
100
AcDbPolyline
90
8
70
1
43
0.0
10
-159.70020400000004
20
156.90866
10
-158.399204
20
158.20966000000001
10
-146.40120400000001
20
158.20966000000001
10
-145.10020399999999
20
156.90866
10
-145.10020399999999
20
145.51066
10
-146.40120400000001
20
144.20966000000001
10
-158.399204
20
144.20966000000001
10
-159.70020400000004
20
145.51066
0
LWPOLYLINE
5
130
100
AcDbEntity
8
0
100
AcDbPolyline
90
8
70
1
43
0.0
10
-135.57520400000001
20
175.95866000000001
10
-135.57520400000001
20
164.56066000000004
10
-136.876204
20
163.25966
10
-148.87420399999999
20
163.25966
10
-150.17520400000001
20
164.56066000000004
10
-150.17520400000001
20
175.95866000000001
10
-148.87420399999999
20
177.25966
10
-136.876204
20
177.25966
0
LWPOLYLINE
5
131
100
AcDbEntity
8
0
100
AcDbPolyline
90
8
70
1
43
0.0
10
-131.125204
20
175.95866000000001
10
-129.82420400000001
20
177.25966
10
-117.826204
20
177.25966
10
-116.525204
20
175.95866000000001
10
-116.525204
20
164.56066000000004
10
-117.826204
20
163.25966
10
-129.82420400000001
20
163.25966
10
-131.125204
20
164.56066000000004
0
CIRCLE
5
132
100
AcDbEntity
8
0
100
AcDbCircle
10
-114.30020400000001
20
170.25966
30
0
40
0.8115
210
0
220
0
230
1
0
LWPOLYLINE
5
133
100
AcDbEntity
8
0
100
AcDbPolyline
90
6
70
1
43
0.0
10
-79.868954000000002
20
177.25966
10
-76.868954000000002
20
175.52766000000003
10
-76.868954000000002
20
163.25966
10
-108.868954
20
163.25966
10
-108.868954
20
175.52766000000003
10
-105.86895400000002
20
177.25966
0
LWPOLYLINE
5
134
100
AcDbEntity
8
0
100
AcDbPolyline
90
8
70
1
43
0.0
10
-139.34920399999999
20
158.20966000000001
10
-127.351204
20
158.20966000000001
10
-126.05020400000001
20
156.90866
10
-126.05020400000001
20
145.51066
10
-127.351204
20
144.20966000000001
10
-139.34920399999999
20
144.20966000000001
10
-140.65020400000003
20
145.51066
10
-140.65020400000003
20
156.90866
0
CIRCLE
5
135
100
AcDbEntity
8
0
100
AcDbCircle
10
-123.82520400000001
20
151.20966000000004
30
0
40
0.8115
210
0
220
0
230
1
0
LWPOLYLINE
5
136
100
AcDbEntity
8
0
100
AcDbPolyline
90
8
70
1
43
0.0
10
-108.301204
20
158.20966000000001
10
-107.000204
20
156.90866
10
-107.000204
20
145.51066
10
-108.301204
20
144.20966000000001
10
-120.29920400000002
20
144.20966000000001
10
-121.60020400000001
20
145.51066
10
-121.60020400000001
20
156.90866
10
-120.29920400000002
20
158.20966000000001
0
LWPOLYLINE
5
137
100
AcDbEntity
8
0
100
AcDbPolyline
90
8
70
1
43
0.0
10
-95.406454000000011
20
156.90866
10
-94.105454000000009
20
158.20966000000001
10
-82.107454000000004
20
158.20966000000001
10
-80.806454000000002
20
156.90866
10
-80.806454000000002
20
145.51066
10
-82.107454000000004
20
144.20966000000001
10
-94.105454000000009
20
144.20966000000001
10
-95.406454000000011
20
145.51066
0
LWPOLYLINE
5
138
100
AcDbEntity
8
0
100
AcDbPolyline
90
8
70
1
43
0.0
10
-335.60020400000008
20
126.46066000000002
10
-336.90120400000006
20
125.15966
10
-348.899204
20
125.15966
10
-350.20020399999999
20
126.46066000000002
10
-350.20020399999999
20
137.85865999999999
10
-348.899204
20
139.15966
10
-336.90120400000006
20
139.15966
10
-335.60020400000008
20
137.85865999999999
0
CIRCLE
5
139
100
AcDbEntity
8
0
100
AcDbCircle
10
-331.91470400000003
20
131.82166000000001
30
0
40
0.8115
210
0
220
0
230
1
0
LWPOLYLINE
5
140
100
AcDbEntity
8
0
100
AcDbPolyline
90
8
70
1
43
0.0
10
-313.08870400000001
20
125.15966
10
-325.086704
20
125.15966
10
-326.38770399999999
20
126.46066000000002
10
-326.38770399999999
20
137.85865999999999
10
-325.086704
20
139.15966
10
-313.08870400000001
20
139.15966
10
-311.78770400000008
20
137.85865999999999
10
-311.78770400000008
20
126.46066000000002
0
LWPOLYLINE
5
141
100
AcDbEntity
8
0
100
AcDbPolyline
90
8
70
1
43
0.0
10
-306.03670399999999
20
139.15966
10
-294.03870400000005
20
139.15966
10
-292.73770400000001
20
137.85865999999999
10
-292.73770400000001
20
126.46066000000002
10
-294.03870400000005
20
125.15966
10
-306.03670399999999
20
125.15966
10
-307.33770399999997
20
126.46066000000002
10
-307.33770399999997
20
137.85865999999999
0
CIRCLE
5
142
100
AcDbEntity
8
0
100
AcDbCircle
10
-290.51270399999999
20
132.15966000000003
30
0
40
0.8115
210
0
220
0
230
1
0
LWPOLYLINE
5
143
100
AcDbEntity
8
0
100
AcDbPolyline
90
8
70
1
43
0.0
10
-288.28770400000002
20
126.46066000000002
10
-288.28770400000002
20
137.85865999999999
10
-286.98670399999997
20
139.15966
10
-274.98870399999998
20
139.15966
10
-273.68770400000005
20
137.85865999999999
10
-273.68770400000005
20
126.46066000000002
10
-274.98870399999998
20
125.15966
10
-286.98670399999997
20
125.15966
0
LWPOLYLINE
5
144
100
AcDbEntity
8
0
100
AcDbPolyline
90
8
70
1
43
0.0
10
-267.93670400000002
20
125.15966
10
-269.23770400000001
20
126.46066000000002
10
-269.23770400000001
20
137.85865999999999
10
-267.93670400000002
20
139.15966
10
-255.938704
20
139.15966
10
-254.63770400000001
20
137.85865999999999
10
-254.63770400000001
20
126.46066000000002
10
-255.938704
20
125.15966
0
CIRCLE
5
145
100
AcDbEntity
8
0
100
AcDbCircle
10
-252.41270400000002
20
132.15966000000003
30
0
40
0.8115
210
0
220
0
230
1
0
LWPOLYLINE
5
146
100
AcDbEntity
8
0
100
AcDbPolyline
90
8
70
1
43
0.0
10
-236.88870399999999
20
125.15966
10
-248.88670400000001
20
125.15966
10
-250.187704
20
126.46066000000002
10
-250.187704
20
137.85865999999999
10
-248.88670400000001
20
139.15966
10
-236.88870399999999
20
139.15966
10
-235.587704
20
137.85865999999999
10
-235.587704
20
126.46066000000002
0
LWPOLYLINE
5
147
100
AcDbEntity
8
0
100
AcDbPolyline
90
8
70
1
43
0.0
10
-229.836704
20
139.15966
10
-217.83870400000001
20
139.15966
10
-216.53770399999999
20
137.85865999999999
10
-216.53770399999999
20
126.46066000000002
10
-217.83870400000001
20
125.15966
10
-229.836704
20
125.15966
10
-231.13770400000004
20
126.46066000000002
10
-231.13770400000004
20
137.85865999999999
0
LWPOLYLINE
5
148
100
AcDbEntity
8
0
100
AcDbPolyline
90
8
70
1
43
0.0
10
-302.26270399999999
20
107.41066000000001
10
-303.56370399999997
20
106.10966000000002
10
-315.56170400000002
20
106.10966000000002
10
-316.86270400000001
20
107.41066000000001
10
-316.86270400000001
20
118.80866
10
-315.56170400000002
20
120.10966000000002
10
-303.56370399999997
20
120.10966000000002
10
-302.26270399999999
20
118.80866
0
LWPOLYLINE
5
149
100
AcDbEntity
8
0
100
AcDbPolyline
90
8
70
1
43
0.0
10
-296.51170400000001
20
106.10966000000002
10
-297.812704
20
107.41066000000001
10
-297.812704
20
118.80866
10
-296.51170400000001
20
120.10966000000002
10
-284.51370400000002
20
120.10966000000002
10
-283.21270399999997
20
118.80866
10
-283.21270399999997
20
107.41066000000001
10
-284.51370400000002
20
106.10966000000002
0
LWPOLYLINE
5
150
100
AcDbEntity
8
0
100
AcDbPolyline
90
8
70
1
43
0.0
10
-277.461704
20
106.10966000000002
10
-278.76270399999999
20
107.41066000000001
10
-278.76270399999999
20
118.80866
10
-277.461704
20
120.10966000000002
10
-265.46370400000001
20
120.10966000000002
10
-264.16270400000002
20
118.80866
10
-264.16270400000002
20
107.41066000000001
10
-265.46370400000001
20
106.10966000000002
0
CIRCLE
5
151
100
AcDbEntity
8
0
100
AcDbCircle
10
-261.937704
20
113.10966000000001
30
0
40
0.8115
210
0
220
0
230
1
0
LWPOLYLINE
5
152
100
AcDbEntity
8
0
100
AcDbPolyline
90
8
70
1
43
0.0
10
-258.41170399999999
20
120.10966000000002
10
-246.413704
20
120.10966000000002
10
-245.11270400000001
20
118.80866
10
-245.11270400000001
20
107.41066000000001
10
-246.413704
20
106.10966000000002
10
-258.41170399999999
20
106.10966000000002
10
-259.71270399999997
20
107.41066000000001
10
-259.71270399999997
20
118.80866
0
LWPOLYLINE
5
153
100
AcDbEntity
8
0
100
AcDbPolyline
90
8
70
1
43
0.0
10
-240.66270400000002
20
118.80866
10
-239.36170400000003
20
120.10966000000002
10
-227.36370400000001
20
120.10966000000002
10
-226.062704
20
118.80866
10
-226.062704
20
107.41066000000001
10
-227.36370400000001
20
106.10966000000002
10
-239.36170400000003
20
106.10966000000002
10
-240.66270400000002
20
107.41066000000001
0
CIRCLE
5
154
100
AcDbEntity
8
0
100
AcDbCircle
10
-223.83770400000003
20
113.10966000000001
30
0
40
0.8115
210
0
220
0
230
1
0
CIRCLE
5
155
100
AcDbEntity
8
0
100
AcDbCircle
10
-200.02520400000003
20
150.90966000000003
30
0
40
0.8115
210
0
220
0
230
1
0
CIRCLE
5
156
100
AcDbEntity
8
0
100
AcDbCircle
10
-214.31270400000002
20
132.15966000000003
30
0
40
0.8115
210
0
220
0
230
1
0
LWPOLYLINE
5
157
100
AcDbEntity
8
0
100
AcDbPolyline
90
8
70
1
43
0.0
10
-212.08770400000003
20
126.46066000000002
10
-212.08770400000003
20
137.85865999999999
10
-210.78670399999999
20
139.15966
10
-198.788704
20
139.15966
10
-197.48770400000001
20
137.85865999999999
10
-197.48770400000001
20
126.46066000000002
10
-198.788704
20
125.15966
10
-210.78670399999999
20
125.15966
0
LWPOLYLINE
5
158
100
AcDbEntity
8
0
100
AcDbPolyline
90
8
70
1
43
0.0
10
-179.73870400000004
20
125.15966
10
-191.73670400000003
20
125.15966
10
-193.03770400000002
20
126.46066000000002
10
-193.03770400000002
20
137.85865999999999
10
-191.73670400000003
20
139.15966
10
-179.73870400000004
20
139.15966
10
-178.437704
20
137.85865999999999
10
-178.437704
20
126.46066000000002
0
CIRCLE
5
159
100
AcDbEntity
8
0
100
AcDbCircle
10
-176.212704
20
132.15966000000003
30
0
40
0.8115
210
0
220
0
230
1
0
LWPOLYLINE
5
160
100
AcDbEntity
8
0
100
AcDbPolyline
90
8
70
1
43
0.0
10
-160.68870400000003
20
125.15966
10
-172.68670400000002
20
125.15966
10
-173.98770400000001
20
126.46066000000002
10
-173.98770400000001
20
137.85865999999999
10
-172.68670400000002
20
139.15966
10
-160.68870400000003
20
139.15966
10
-159.38770400000004
20
137.85865999999999
10
-159.38770400000004
20
126.46066000000002
0
LWPOLYLINE
5
161
100
AcDbEntity
8
0
100
AcDbPolyline
90
8
70
1
43
0.0
10
-140.33770400000003
20
126.46066000000002
10
-141.63870400000002
20
125.15966
10
-153.63670400000001
20
125.15966
10
-154.937704
20
126.46066000000002
10
-154.937704
20
137.85865999999999
10
-153.63670400000001
20
139.15966
10
-141.63870400000002
20
139.15966
10
-140.33770400000003
20
137.85865999999999
0
CIRCLE
5
162
100
AcDbEntity
8
0
100
AcDbCircle
10
-138.11270400000001
20
132.15966000000003
30
0
40
0.8115
210
0
220
0
230
1
0
LWPOLYLINE
5
163
100
AcDbEntity
8
0
100
AcDbPolyline
90
8
70
1
43
0.0
10
-135.88770400000001
20
137.85865999999999
10
-134.586704
20
139.15966
10
-122.58870400000001
20
139.15966
10
-121.28770400000001
20
137.85865999999999
10
-121.28770400000001
20
126.46066000000002
10
-122.58870400000001
20
125.15966
10
-134.586704
20
125.15966
10
-135.88770400000001
20
126.46066000000002
0
LWPOLYLINE
5
164
100
AcDbEntity
8
0
100
AcDbPolyline
90
8
70
1
43
0.0
10
-103.538704
20
139.15966
10
-102.23770399999999
20
137.85865999999999
10
-102.23770399999999
20
126.46066000000002
10
-103.538704
20
125.15966
10
-115.53670400000001
20
125.15966
10
-116.837704
20
126.46066000000002
10
-116.837704
20
137.85865999999999
10
-115.53670400000001
20
139.15966
0
CIRCLE
5
165
100
AcDbEntity
8
0
100
AcDbCircle
10
-97.012703999999999
20
131.80966000000001
30
0
40
0.8115
210
0
220
0
230
1
0
LWPOLYLINE
5
166
100
AcDbEntity
8
0
100
AcDbPolyline
90
8
70
1
43
0.0
10
-78.425203999999994
20
137.85865999999999
10
-78.425203999999994
20
126.46066000000002
10
-79.726203999999996
20
125.15966
10
-91.724204
20
125.15966
10
-93.025204000000002
20
126.46066000000002
10
-93.025204000000002
20
137.85865999999999
10
-91.724204
20
139.15966
10
-79.726203999999996
20
139.15966
0
CIRCLE
5
167
100
AcDbEntity
8
0
100
AcDbCircle
10
-76.200203999999999
20
132.15966000000003
30
0
40
0.8115
210
0
220
0
230
1
0
LWPOLYLINE
5
168
100
AcDbEntity
8
0
100
AcDbPolyline
90
8
70
1
43
0.0
10
-207.01270400000001
20
107.41066000000001
10
-208.313704
20
106.10966000000002
10
-220.31170400000002
20
106.10966000000002
10
-221.61270400000004
20
107.41066000000001
10
-221.61270400000004
20
118.80866
10
-220.31170400000002
20
120.10966000000002
10
-208.313704
20
120.10966000000002
10
-207.01270400000001
20
118.80866
0
LWPOLYLINE
5
169
100
AcDbEntity
8
0
100
AcDbPolyline
90
8
70
1
43
0.0
10
-202.56270400000002
20
107.41066000000001
10
-202.56270400000002
20
118.80866
10
-201.26170400000004
20
120.10966000000002
10
-189.26370399999999
20
120.10966000000002
10
-187.962704
20
118.80866
10
-187.962704
20
107.41066000000001
10
-189.26370399999999
20
106.10966000000002
10
-201.26170400000004
20
106.10966000000002
0
CIRCLE
5
170
100
AcDbEntity
8
0
100
AcDbCircle
10
-185.73770400000001
20
113.10966000000001
30
0
40
0.8115
210
0
220
0
230
1
0
LWPOLYLINE
5
171
100
AcDbEntity
8
0
100
AcDbPolyline
90
8
70
1
43
0.0
10
-170.21370400000001
20
106.10966000000002
10
-182.21170400000003
20
106.10966000000002
10
-183.51270400000001
20
107.41066000000001
10
-183.51270400000001
20
118.80866
10
-182.21170400000003
20
120.10966000000002
10
-170.21370400000001
20
120.10966000000002
10
-168.91270399999999
20
118.80866
10
-168.91270399999999
20
107.41066000000001
0
LWPOLYLINE
5
172
100
AcDbEntity
8
0
100
AcDbPolyline
90
8
70
1
43
0.0
10
-151.163704
20
120.10966000000002
10
-149.86270400000001
20
118.80866
10
-149.86270400000001
20
107.41066000000001
10
-151.163704
20
106.10966000000002
10
-163.16170400000001
20
106.10966000000002
10
-164.462704
20
107.41066000000001
10
-164.462704
20
118.80866
10
-163.16170400000001
20
120.10966000000002
0
CIRCLE
5
173
100
AcDbEntity
8
0
100
AcDbCircle
10
-147.63770400000001
20
113.10966000000001
30
0
40
0.8115
210
0
220
0
230
1
0
LWPOLYLINE
5
174
100
AcDbEntity
8
0
100
AcDbPolyline
90
8
70
1
43
0.0
10
-132.11370400000001
20
120.10966000000002
10
-130.812704
20
118.80866
10
-130.812704
20
107.41066000000001
10
-132.11370400000001
20
106.10966000000002
10
-144.111704
20
106.10966000000002
10
-145.41270399999999
20
107.41066000000001
10
-145.41270399999999
20
118.80866
10
-144.111704
20
120.10966000000002
0
LWPOLYLINE
5
175
100
AcDbEntity
8
0
100
AcDbPolyline
90
8
70
1
43
0.0
10
-125.06170400000002
20
120.10966000000002
10
-113.063704
20
120.10966000000002
10
-111.762704
20
118.80866
10
-111.762704
20
107.41066000000001
10
-113.063704
20
106.10966000000002
10
-125.06170400000002
20
106.10966000000002
10
-126.36270400000001
20
107.41066000000001
10
-126.36270400000001
20
118.80866
0
CIRCLE
5
176
100
AcDbEntity
8
0
100
AcDbCircle
10
-109.53770400000002
20
113.10966000000001
30
0
40
0.8115
210
0
220
0
230
1
0
LWPOLYLINE
5
177
100
AcDbEntity
8
0
100
AcDbPolyline
90
8
70
1
43
0.0
10
-92.712704000000002
20
107.41066000000001
10
-94.013704000000018
20
106.10966000000002
10
-106.01170400000001
20
106.10966000000002
10
-107.312704
20
107.41066000000001
10
-107.312704
20
118.80866
10
-106.01170400000001
20
120.10966000000002
10
-94.013704000000018
20
120.10966000000002
10
-92.712704000000002
20
118.80866
0
LWPOLYLINE
5
178
100
AcDbEntity
8
0
100
AcDbPolyline
90
8
70
1
43
0.0
10
-88.262703999999999
20
107.41066000000001
10
-88.262703999999999
20
118.80866
10
-86.961703999999997
20
120.10966000000002
10
-74.963704000000007
20
120.10966000000002
10
-73.662704000000019
20
118.80866
10
-73.662704000000019
20
107.41066000000001
10
-74.963704000000007
20
106.10966000000002
10
-86.961703999999997
20
106.10966000000002
0
CIRCLE
5
179
100
AcDbEntity
8
0
100
AcDbCircle
10
-309.43239199999999
20
189.30966000000001
30
0
40
0.81150000000000944
210
0
220
-0
230
1
0
LWPOLYLINE
5
180
100
AcDbEntity
8
0
100
AcDbPolyline
90
8
70
1
43
0.0
10
-294.03870400000005
20
182.30966000000001
10
-306.03670399999999
20
182.30966000000001
10
-307.33770399999997
20
183.61066
10
-307.33770399999997
20
195.00866000000002
10
-306.03670399999999
20
196.30966000000001
10
-294.03870400000005
20
196.30966000000001
10
-292.73770400000001
20
195.00866000000002
10
-292.73770400000001
20
183.61066
0
LWPOLYLINE
5
181
100
AcDbEntity
8
0
100
AcDbPolyline
90
8
70
1
43
0.0
10
-163.38570400000003
20
196.18016
10
-150.93970400000001
20
196.18016
10
-150.43170400000002
20
195.67216000000002
10
-150.43170400000002
20
182.94716
10
-150.93970400000001
20
182.43915999999999
10
-163.38570400000003
20
182.43915999999999
10
-163.89370400000001
20
182.94716
10
-163.89370400000001
20
195.67216000000002
0
LWPOLYLINE
5
182
100
AcDbEntity
8
0
100
AcDbPolyline
90
8
70
1
43
0.0
10
-127.351204
20
196.30966000000001
10
-126.05020400000001
20
195.00866000000002
10
-126.05020400000001
20
183.61066
10
-127.351204
20
182.30966000000001
10
-139.34920399999999
20
182.30966000000001
10
-140.65020400000003
20
183.61066
10
-140.65020400000003
20
195.00866000000002
10
-139.34920399999999
20
196.30966000000001
0
LWPOLYLINE
5
183
100
AcDbEntity
8
0
100
AcDbPolyline
90
8
70
1
43
0.0
10
-282.22420399999999
20
182.30966000000001
10
-283.52520399999997
20
183.61066
10
-283.52520399999997
20
195.00866000000002
10
-282.22420399999999
20
196.30966000000001
10
-270.226204
20
196.30966000000001
10
-268.92520400000001
20
195.00866000000002
10
-268.92520400000001
20
183.61066
10
-270.226204
20
182.30966000000001
0
CIRCLE
5
184
100
AcDbEntity
8
0
100
AcDbCircle
10
-97.631454000000005
20
189.30966000000001
30
0
40
0.81149999999999167
210
0
220
-0
230
1
0
CIRCLE
5
185
100
AcDbEntity
8
0
100
AcDbCircle
10
-223.83770400000003
20
189.30966000000001
30
0
40
0.81150000000000944
210
0
220
-0
230
1
0
LWPOLYLINE
5
186
100
AcDbEntity
8
0
100
AcDbPolyline
90
8
70
1
43
0.0
10
-210.78670399999999
20
182.30966000000001
10
-212.08770400000003
20
183.61066
10
-212.08770400000003
20
195.00866000000002
10
-210.78670399999999
20
196.30966000000001
10
-198.788704
20
196.30966000000001
10
-197.48770400000001
20
195.00866000000002
10
-197.48770400000001
20
183.61066
10
-198.788704
20
182.30966000000001
0
LWPOLYLINE
5
187
100
AcDbEntity
8
0
100
AcDbPolyline
90
8
70
1
43
0.0
10
-116.837704
20
195.00866000000002
10
-115.53670400000001
20
196.30966000000001
10
-103.538704
20
196.30966000000001
10
-102.23770399999999
20
195.00866000000002
10
-102.23770399999999
20
183.61066
10
-103.538704
20
182.30966000000001
10
-115.53670400000001
20
182.30966000000001
10
-116.837704
20
183.61066
0
LWPOLYLINE
5
188
100
AcDbEntity
8
0
100
AcDbPolyline
90
8
70
1
43
0.0
10
-245.681704
20
182.94716
10
-246.18970400000001
20
182.43915999999999
10
-258.63570400000003
20
182.43915999999999
10
-259.14370400000001
20
182.94716
10
-259.14370400000001
20
195.67216000000002
10
-258.63570400000003
20
196.18016
10
-246.18970400000001
20
196.18016
10
-245.681704
20
195.67216000000002
0
CIRCLE
5
189
100
AcDbEntity
8
0
100
AcDbCircle
10
-145.25645399999999
20
189.30966000000001
30
0
40
0.81149999999999167
210
0
220
-0
230
1
0
CIRCLE
5
190
100
AcDbEntity
8
0
100
AcDbCircle
10
-319.08770399999997
20
113.10966000000001
30
0
40
0.81150000000000944
210
0
220
-0
230
1
0
LWPOLYLINE
5
191
100
AcDbEntity
8
0
100
AcDbPolyline
90
40
70
1
43
0.0
10
-356.81224817028817
20
196.55250834268489
10
-356.81333999357997
20
105.90965989110002
42
0.41420710388693666
10
-354.81270399999994
20
103.90965999940428
10
-321.13770335816776
20
103.90966479282731
42
-0.41421360405940805
10
-319.13770307351581
20
101.90966479282734
10
-319.13770307351575
20
99.638503696058251
42
0.41421360406001417
10
-317.13770278885966
20
97.638503696058265
10
-283.03770324658632
20
97.638508549446271
42
0.41421350408687518
10
-281.03770353124253
20
99.63850843609913
10
-281.0377034025276
20
101.90967089809804
42
-0.41421350408748392
10
-279.0377036871796
20
103.90967078475092
10
-149.63770335816767
20
103.90968920173233
42
-0.41421360405940805
10
-147.63770307351572
20
101.90968920173235
10
-147.63770307351572
20
99.638503696058251
42
0.41421360406003238
10
-145.63770278885954
20
97.638503696058265
10
-111.53770324658629
20
97.638508549446271
42
0.41421350408685698
10
-109.53770353124249
20
99.63850843609913
10
-109.53770340252625
20
101.90969530700306
42
-0.41421350408748392
10
-107.53770368717821
20
103.90969519365592
10
-73.812700005997996
20
103.90969999360001
42
0.41411985435070714
10
-71.81269999999995
20
105.90965999840969
10
-71.813795880051941
20
196.55269768592589
42
0.40792966833954747
10
-73.812703999999911
20
198.50966000059626
10
-81.537703228268981
20
198.50966109981994
42
-0.41421362065932243
10
-83.53770294352573
20
200.5096617825663
10
-83.53770216820395
20
202.78084706138529
42
0.41421362065934064
10
-85.537701883460784
20
204.78084774413165
10
-119.6377015544502
20
204.78085259900084
42
0.41421352068617712
10
-121.6377018391932
20
202.78085316840009
10
-121.63770248579915
20
200.50966652426217
42
-0.41421352068616146
10
-123.63770277054215
20
198.50966709366139
10
-305.53770322826443
20
198.50969299104321
42
-0.41421362065933026
10
-307.53770294352125
20
200.50969367378957
10
-307.53770216819953
20
202.78087895260856
42
0.41421362065933026
10
-309.53770188345635
20
204.78087963535495
10
-343.63770155444575
20
204.78088449022411
42
0.41421352068617967
10
-345.63770183918871
20
202.78088505962336
10
-345.63770248579465
20
200.50969841548545
42
-0.41421352068615891
10
-347.6377027705376
20
198.50969898488469
10
-354.81269999399001
20
198.50970000640004
42
0.4080443264116399
0
ENDSEC
0
SECTION
2
OBJECTS
0
DICTIONARY
5
C
100
AcDbDictionary
3
ACAD_GROUP
350
D
3
ACAD_MLINESTYLE
350
17
0
DICTIONARY
5
D
100
AcDbDictionary
0
DICTIONARY
5
1A
330
C
100
AcDbDictionary
0
DICTIONARY
5
17
100
AcDbDictionary
0
ENDSEC
0
EOF
